<?xml version="1.0" standalone="no"?>
<!DOCTYPE svg PUBLIC "-//W3C//DTD SVG 20010904//EN"
 "http://www.w3.org/TR/2001/REC-SVG-20010904/DTD/svg10.dtd">
<svg version="1.0" xmlns="http://www.w3.org/2000/svg"
 width="1024.000000pt" height="1024.000000pt" viewBox="0 0 1024.000000 1024.000000"
 preserveAspectRatio="xMidYMid meet">
<metadata>
Created by potrace 1.11, written by Peter Selinger 2001-2013
</metadata>
<g transform="translate(0.000000,1024.000000) scale(0.100000,-0.100000)"
fill="#000000" stroke="none">
<path d="M6748 10105 c-2 -1 -43 -5 -93 -9 -49 -3 -101 -8 -115 -11 -13 -2
-42 -7 -65 -11 -22 -3 -67 -12 -100 -20 -33 -8 -71 -17 -84 -20 -13 -3 -32 -9
-43 -15 -10 -5 -18 -7 -18 -5 0 12 -472 -163 -607 -225 -34 -16 -65 -29 -69
-29 -8 0 -375 -181 -449 -222 -33 -18 -61 -36 -63 -40 -2 -5 -9 -8 -15 -8 -21
0 -433 -269 -457 -299 -3 -3 -30 -25 -60 -48 -30 -23 -68 -53 -85 -68 -16 -14
-57 -50 -89 -78 -140 -122 -394 -389 -481 -505 -5 -7 -17 -21 -26 -30 -55 -59
-229 -304 -396 -557 -181 -274 -500 -861 -668 -1230 -44 -96 -179 -415 -204
-480 -13 -33 -27 -69 -32 -80 -23 -54 -116 -331 -125 -370 -1 -5 -12 -46 -24
-90 -30 -107 -94 -376 -105 -440 -3 -16 -8 -37 -10 -45 -2 -8 -7 -28 -10 -45
-2 -16 -7 -41 -10 -55 -3 -14 -8 -38 -10 -55 -3 -16 -7 -41 -10 -55 -9 -41
-12 -63 -19 -113 -4 -26 -11 -71 -17 -100 -6 -29 -13 -65 -15 -82 -3 -16 -7
-41 -10 -55 -16 -73 36 76 60 170 23 92 176 430 227 501 10 15 19 30 19 33 0
6 70 117 80 126 3 3 14 19 24 35 10 17 51 72 90 124 400 531 1056 1035 1766
1354 275 124 778 302 1160 412 156 45 367 107 380 112 17 7 26 10 55 17 11 3
34 9 50 15 17 6 82 27 145 47 63 20 126 41 140 47 14 6 28 11 33 12 4 2 8 3
10 5 1 1 9 3 17 5 8 1 56 19 105 39 50 21 95 38 100 40 61 18 288 134 395 201
302 188 507 420 616 697 25 65 69 216 79 278 4 19 12 68 19 108 13 71 15 354
3 398 -3 12 -8 38 -11 57 -13 80 -87 257 -123 295 -7 7 -13 16 -13 20 0 14
-117 131 -170 170 -118 87 -279 145 -460 167 -52 6 -208 14 -212 10z"/>
<path d="M5890 7253 c-69 -25 -129 -46 -135 -47 -5 -1 -14 -4 -20 -7 -5 -4
-35 -14 -65 -24 -55 -17 -177 -60 -215 -76 -11 -4 -72 -26 -135 -48 -105 -36
-164 -57 -417 -150 -358 -131 -690 -295 -1013 -499 -74 -47 -136 -90 -138 -94
-2 -4 -10 -8 -18 -8 -8 0 -14 -4 -14 -10 0 -5 -6 -10 -14 -10 -8 0 -16 -3 -18
-8 -1 -4 -28 -25 -58 -47 -56 -40 -231 -175 -240 -185 -3 -3 -36 -32 -75 -65
-68 -57 -328 -314 -390 -385 -134 -153 -249 -313 -382 -535 -51 -83 -185 -372
-198 -425 -2 -8 -17 -60 -33 -115 -30 -102 -40 -141 -49 -185 -2 -14 -8 -44
-14 -67 -5 -24 -9 -46 -8 -50 1 -5 0 -10 -1 -13 -3 -8 -8 -49 -15 -135 -26
-279 22 -475 150 -622 101 -116 276 -208 438 -230 64 -9 238 -9 291 1 126 22
312 96 416 166 8 6 23 13 33 16 9 4 17 9 17 13 0 4 15 15 33 26 17 10 34 21
37 24 3 4 30 26 60 51 92 76 100 83 179 160 197 195 374 414 496 615 48 80
175 325 175 339 0 4 14 37 30 73 17 35 30 71 30 79 0 8 6 27 14 42 16 31 113
319 182 537 146 466 204 612 328 823 34 57 69 118 80 135 19 33 202 293 221
314 5 6 21 26 35 44 138 184 530 609 561 609 5 0 9 5 9 10 0 15 -16 12 -150
-37z"/>
<path d="M7268 7045 c-2 -2 -35 -6 -75 -9 -175 -15 -427 -123 -597 -256 -298
-234 -616 -604 -785 -915 -18 -33 -38 -66 -44 -74 -7 -8 -11 -17 -10 -20 1 -3
-12 -35 -29 -71 -63 -137 -121 -289 -193 -503 -56 -168 -199 -608 -210 -647
-1 -3 -4 -12 -8 -20 -3 -8 -22 -59 -42 -113 -41 -111 -89 -215 -141 -302 -19
-33 -40 -72 -47 -87 -6 -16 -15 -28 -19 -28 -4 0 -8 -5 -8 -10 0 -9 -92 -149
-173 -264 -29 -41 -157 -207 -173 -226 -8 -8 -60 -69 -116 -135 -56 -66 -105
-122 -108 -125 -3 -3 -33 -34 -66 -70 -33 -36 -99 -102 -146 -147 -48 -46 -82
-83 -77 -83 5 0 26 6 46 14 21 8 85 31 143 51 58 20 112 39 120 42 8 3 20 7
26 8 11 3 179 62 246 87 15 6 30 10 33 9 3 -1 19 6 36 15 17 8 38 17 47 19 17
3 179 59 217 75 38 15 90 35 95 35 6 1 115 41 145 54 11 5 47 19 80 31 182 69
465 200 615 285 41 23 96 54 121 68 77 42 264 161 267 169 2 4 8 8 13 8 22 0
311 219 466 352 155 134 367 350 474 482 159 198 271 370 375 577 35 70 64
130 64 133 0 3 9 25 20 49 21 44 97 271 104 310 2 12 9 40 15 62 6 22 13 58
16 80 3 22 9 54 12 70 8 40 11 65 19 160 22 257 -17 441 -124 584 -106 142
-311 249 -509 266 -32 3 -70 7 -85 9 -15 2 -29 2 -30 1z"/>
<path d="M8060 5616 c0 -22 -71 -240 -84 -255 -6 -8 -10 -16 -8 -18 1 -1 2 -4
1 -5 0 -2 -2 -10 -4 -18 -11 -57 -265 -528 -296 -550 -4 -3 -24 -30 -45 -60
-148 -217 -439 -523 -679 -715 -27 -22 -59 -48 -70 -57 -11 -9 -56 -44 -100
-77 -44 -33 -85 -64 -90 -68 -26 -20 -256 -173 -261 -173 -3 0 -18 -9 -34 -20
-50 -36 -272 -160 -285 -160 -7 0 -15 -4 -17 -9 -4 -12 -204 -111 -223 -111
-8 0 -15 -4 -15 -9 0 -5 -17 -15 -37 -22 -21 -7 -65 -24 -98 -39 -33 -15 -90
-39 -128 -54 -37 -14 -95 -37 -130 -50 -34 -13 -91 -34 -127 -46 -36 -12 -74
-26 -85 -30 -11 -4 -42 -15 -70 -25 -49 -16 -59 -20 -80 -25 -5 -2 -35 -12
-65 -22 -30 -11 -75 -26 -100 -33 -25 -7 -83 -25 -130 -40 -114 -35 -511 -155
-532 -160 -10 -2 -77 -23 -150 -45 -73 -23 -137 -43 -143 -44 -5 0 -12 -3 -15
-6 -3 -4 -25 -12 -50 -19 -107 -31 -357 -134 -515 -214 -44 -22 -90 -45 -102
-51 -13 -6 -23 -14 -23 -18 0 -5 -5 -8 -11 -8 -27 0 -251 -164 -341 -251 -224
-215 -358 -492 -414 -859 -9 -59 -10 -332 -1 -393 9 -66 44 -181 75 -247 107
-231 317 -386 600 -445 40 -8 88 -15 105 -15 24 0 28 -3 17 -10 -8 -5 -10 -10
-5 -10 6 0 16 5 22 11 8 8 13 8 17 0 10 -15 218 -15 234 1 8 8 15 8 28 -3 12
-9 15 -10 10 -1 -5 8 1 12 21 13 15 0 37 2 48 4 11 1 36 5 55 8 19 3 58 11 85
17 28 6 62 13 77 15 15 2 31 6 36 9 5 3 20 7 35 10 23 4 247 77 287 93 8 4 17
7 20 8 7 2 23 9 180 72 74 30 141 55 148 56 6 0 12 4 12 8 0 4 11 10 24 13 50
12 352 160 527 256 170 95 386 236 514 337 17 13 35 27 40 31 13 9 117 94 131
107 128 114 172 156 255 240 54 55 107 109 116 121 10 11 41 47 69 80 48 54
112 130 153 179 114 139 345 480 503 745 127 211 133 223 255 450 99 184 268
531 318 650 15 36 43 98 61 138 19 41 34 76 34 80 0 3 9 24 19 46 28 59 114
286 151 396 68 204 134 459 196 755 2 11 6 31 9 45 3 14 7 39 10 55 2 17 7 41
10 55 3 14 8 41 11 60 3 19 7 42 9 50 3 8 7 33 10 55 3 22 7 51 10 65 3 14 8
40 11 59 2 19 8 51 13 72 5 23 5 39 0 39 -5 0 -9 -6 -9 -14z"/>
</g>
</svg>
